<svg xmlns="https://www.w3.org/2000/svg" viewBox="0 0 389.74 89.79"><defs><style>.cls-1{fill:#0c0c0c;}.cls-2{fill:#060606;}.cls-3{fill:#090909;}.cls-4{fill:#070707;}.cls-5{fill:#171717;}.cls-6{fill:#0e0e0e;}</style></defs><g id="Layer_2" data-name="Layer 2"><g id="Layer_1-2" data-name="Layer 1"><path class="cls-1" d="M255.83,0c1.94,2.7,4.71,1.67,7.25,1.55,17.66-.8,34,3,44.54,18.15,18.07,25.86,8.36,54.15-15.28,66.65-3,1.56-6.34,2.31-9.53,3.44h-23c-2.89-2.91-7-3.18-10.48-5-11.39-6-21.37-13-25.92-26-6-17-.62-40.06,12.73-52.1a23.33,23.33,0,0,1,8.17-4.6c1.27-.43,3.18,0,3.5-2.1ZM227.67,43.25c-.2,13.45,5.53,23.68,17,30.67,3.67,2.24,7.59,4.07,11.46,6,20.15,9.91,41.6-.06,50.93-20,8-17.14-1.36-38.63-18.87-47.37-11.78-5.88-24.44-3-36.49-5.45a1.26,1.26,0,0,0-.49.1c-4.9,1.32-9.33,3.37-12.69,7.38C231.49,22.88,227.6,32.32,227.67,43.25Z"/><path class="cls-2" d="M389.74,74.82c-7.87,1-12-4.19-16.46-9.46-8.42-10-17.26-19.63-27-30.63V49.16c0,6.81-.23,13.63.09,20.43.17,3.78-1,4.81-4.73,4.71-3.39-.1-5-.43-4.87-4.51.32-15.45.17-30.9.32-46.34,0-1.79-1.2-4.76,1.14-5.2,3-.57,6.45-1.46,9.17,1.79,7.37,8.77,15,17.36,22.49,26,3.15,3.61,6.34,7.18,10.56,12V42c0-6.15.3-12.31-.11-18.43-.29-4.4,1-6.15,5.45-5.41a17.65,17.65,0,0,0,3.95-.23Z"/><path class="cls-2" d="M0,16a10.78,10.78,0,0,0,2.31.6c7.54.32,7.55.3,7.57,7.62,0,4.8,0,9.6,0,15.55L29.58,24.54c3-2.34,6-4.76,9.1-7,4.23-3.06,4.41,2.1,6.47,3.39,2.22,1.37,1.5,2.71-.32,4.14C38.16,30.32,31.68,35.79,25,41c-2.66,2-2.86,3.21,0,5.3,8.32,6.08,16.44,12.42,24.62,18.67,1.66,1.27,4.14,2.63,1.28,4.84-2,1.52-2.41,6.5-7,2.8C35.1,65.64,26,59.2,17,52.63c-1.33-1-2.33-3-4.65-1.78S9.9,54.06,10,56.34c.11,4-.24,8,.11,12,.33,3.72-.81,5.19-4.59,4.64A41.65,41.65,0,0,0,0,72.83Z"/><path class="cls-3" d="M189.14,34.72c-4.21,4.65-8.82,9-12.51,14-3.35,4.55-5.34,3.39-8.3-.16-4-4.82-8.46-9.26-13.79-15v9.86c0,8.63-.23,17.28.1,25.9.15,4-1.32,4.61-4.85,4.55s-5.17-.48-5.09-4.74c.31-15.44.06-30.89.2-46.34,0-1.87-1.54-5,1.3-5.49,3-.47,6.54-1.48,9.23,1.75,4.69,5.61,9.69,11,14.39,16.54,2,2.39,3.26,2.94,5.54.1,4.47-5.56,9.38-10.77,14.13-16.1,1.08-1.21,2-2.41,4-2.59,6.41-.59,6.74-.41,6.73,6,0,15.61-.21,31.22.1,46.83.09,4.66-2.48,3.89-5.27,4.06-3,.19-4.88,0-4.78-4,.27-11.57.09-23.15.09-34.73Z"/><path class="cls-4" d="M119,37.66c0,5.32.08,10.63,0,15.94-.16,8.47-5,15.06-12.93,18.32a32.19,32.19,0,0,1-17.63,1.74C77.09,71.88,70,63.42,70,51.85c0-10,.09-19.92-.06-29.88,0-3.38.11-5.46,4.58-5.19,3.68.23,5.62.36,5.47,5-.34,10.27,0,20.57.09,30.86.06,6,3.23,10,9,11.5a21.34,21.34,0,0,0,12.78-.61c4.61-1.68,7.17-5.06,7.15-10.25,0-10.78.27-21.58,0-32.36-.15-5.81,3.88-3.33,6.43-3.88,3.09-.67,4,.65,3.84,3.73-.26,5.63-.07,11.28-.07,16.92Z"/><path class="cls-5" d="M266.21,70.65c4.81.71,9.89,1.35,14.93,2.26,1.85.33,4.28.82,3.55,3.68-.6,2.38-2.54,2-4.45,1.77-3.44-.4-6.91-.58-10.37-.82-1.48-.11-3,0-4.45-.22-2.5-.4-5.39-1-5.09-4.24C260.67,69.5,263.9,71.25,266.21,70.65Z"/><path class="cls-5" d="M249.57,19.17c-.66,3.46-1.79,6.44-5.73,6.49-2.84,0-2.92-2.29-2.57-4.28.51-2.88.91-6.24,4.83-6.37C248.77,14.93,249.69,16.9,249.57,19.17Z"/><path class="cls-6" d="M289.77,30.67c.57-2.26.48-5.65,4.29-5.86,3-.17,4,2.15,3.79,4.73A5.43,5.43,0,0,1,292.43,35C289.93,35.13,289.68,33.07,289.77,30.67Z"/></g></g></svg>